:SAMPLES-PER-SECOND 30
:FULLY-SPECIFIED
:DEGREES
423
root  3.43757 38.5253 13.9957 177.155 -65.9868 -178.227
RightUpLeg  16.3624 -8.8488 -10.0553
RightLeg  16.1972 15.2473 4.72886
RightFoot  -19.1007 0.090481 3.16197
RightToes  0.00048216 0.542163 -0.142577
Spine  13.0308 -6.60733 -7.8661
Spine1  6.55542 -11.052 14.0576
HEad  -0.119538 20.8954 -7.44581
LeftShoulder1  8.58381 -15.2434 -39.5588
LeftArm  27.5988 -23.2716 -54.4662
LeftForeArm  4.27475 -27.6686 -5.74104
LeftHand  -0.25398 0.0180481 5.50724
RightShoulder  3.87382 7.20039 30.2297
RightArm  -10.8201 -30.7742 31.4261
RightForeArm  -11.743 72.0037 41.7065
RightHand  -0.848861 -0.0732245 -18.4741
LeftUpLeg  -22.275 6.38644 4.17435
LeftLeg  -4.24899 33.5125 -8.86942
LeftFoot  -3.31556 -0.0490619 0.742926
LeftToes  1.06246e-005 4.65856e-005 -8.18501e-006
424
root  1.30103 38.1216 13.8379 179.237 -66.3135 179.305
RightUpLeg  17.8345 -7.03893 -12.5422
RightLeg  19.8173 15.4436 5.70238
RightFoot  -18.3156 0.342103 7.80291
RightToes  0.00048216 0.542163 -0.142577
Spine  13.1214 -6.34416 -10.377
Spine1  5.98796 -11.2182 15.0094
HEad  -0.501414 20.2378 -6.34277
LeftShoulder1  8.68678 -15.1958 -40.1909
LeftArm  27.9715 -21.4135 -54.6462
LeftForeArm  3.9856 -27.3299 -5.67729
LeftHand  -0.25398 0.0180481 5.50724
RightShoulder  3.78292 6.88192 30.4665
RightArm  -11.0797 -32.2712 30.8017
RightForeArm  -11.4019 71.8423 41.1414
RightHand  -0.748684 -0.516762 -17.739
LeftUpLeg  -25.5832 9.82563 0.0782672
LeftLeg  6.75108 27.0229 -3.45035
LeftFoot  1.88978 -0.690041 5.80487
LeftToes  1.06246e-005 4.65856e-005 -8.18501e-006
425
root  -0.766718 37.8459 13.7081 -177.893 -67.6676 175.697
RightUpLeg  17.173 -3.96033 -14.1726
RightLeg  27.002 13.0748 6.8975
RightFoot  -12.9507 0.0724092 12.7082
RightToes  0.00048216 0.542163 -0.142577
Spine  14.1968 -6.02573 -13.0075
Spine1  4.8172 -11.5582 16.4886
HEad  -1.23947 18.8605 -5.30775
LeftShoulder1  8.90079 -15.2862 -41.053
LeftArm  28.7585 -19.9119 -54.9958
LeftForeArm  3.67333 -26.73 -5.55466
LeftHand  -0.25398 0.0180481 5.50724
RightShoulder  3.67197 6.54894 30.5687
RightArm  -12.3673 -34.0125 30.9564
RightForeArm  -12.2487 71.242 39.3866
RightHand  -0.673828 -0.763185 -16.787
LeftUpLeg  -29.0856 20.7991 -9.22743
LeftLeg  15.7212 10.6102 1.84461
LeftFoot  5.6914 -1.44806 9.50183
LeftToes  1.06246e-005 4.65856e-005 -8.18501e-006
426
root  -2.66875 37.7879 13.661 -174.277 -68.7336 171.144
RightUpLeg  12.8941 0.0166624 -14.7715
RightLeg  38.2133 8.59864 6.88833
RightFoot  -1.01833 -1.2742 14.3238
RightToes  0.00048216 0.542163 -0.142577
Spine  15.8067 -5.59732 -14.7884
Spine1  4.15523 -11.5365 16.7634
HEad  -2.70171 17.0471 -4.93325
LeftShoulder1  9.09183 -15.4943 -41.5096
LeftArm  29.7569 -19.3724 -55.4316
LeftForeArm  3.64787 -26.2178 -5.43824
LeftHand  -0.25398 0.0180481 5.50724
RightShoulder  3.6255 6.46116 30.4231
RightArm  -14.3232 -35.5345 32.0815
RightForeArm  -13.0503 70.562 37.5667
RightHand  -0.616309 -0.836619 -15.5997
LeftUpLeg  -29.2611 21.1374 -12.5918
LeftLeg  21.5075 8.6853 4.35722
LeftFoot  4.36014 -1.59719 11.3766
LeftToes  1.06246e-005 4.65856e-005 -8.18501e-006
427
root  -4.3378 37.7924 13.6882 -170.003 -68.2784 166.003
RightUpLeg  5.49922 5.14283 -15.1987
RightLeg  50.868 4.78633 5.97996
RightFoot  11.4079 -2.44318 12.5285
RightToes  0.00048216 0.542163 -0.142577
Spine  17.1841 -4.95421 -16.1449
Spine1  4.48135 -11.12 15.4188
HEad  -4.35447 15.644 -5.57602
LeftShoulder1  9.12769 -15.6314 -41.3627
LeftArm  30.0837 -19.686 -55.716
LeftForeArm  4.13959 -26.1139 -5.38861
LeftHand  -0.25398 0.0180481 5.50724
RightShoulder  3.68414 6.67044 30.2487
RightArm  -15.1512 -35.9479 32.9729
RightForeArm  -13.5958 70.0391 36.2839
RightHand  -0.596568 -0.759974 -14.861
LeftUpLeg  -27.3738 19.743 -14.1177
LeftLeg  25.1291 10.9653 5.88414
LeftFoot  0.049447 -1.23659 12.3343
LeftToes  1.06246e-005 4.65856e-005 -8.18501e-006
428
root  -5.95105 37.8946 13.7482 -167.291 -67.2874 162.558
RightUpLeg  -2.41623 9.57619 -15.6706
RightLeg  61.5901 2.93819 5.39521
RightFoot  16.1561 -2.28503 9.72553
RightToes  0.00048216 0.542163 -0.142577
Spine  18.291 -4.55254 -16.8287
Spine1  4.8032 -10.906 14.2046
HEad  -5.20355 15.102 -6.90873
LeftShoulder1  9.07429 -15.6174 -41.1337
LeftArm  29.4937 -20.37 -55.5715
LeftForeArm  4.60163 -25.9933 -5.3364
LeftHand  -0.25398 0.0180481 5.50724
RightShoulder  3.79818 6.96288 30.328
RightArm  -13.9815 -34.829 32.6427
RightForeArm  -14.6159 69.5148 35.138
RightHand  -0.626601 -0.581314 -15.0478
LeftUpLeg  -24.7672 20.2651 -15.7337
LeftLeg  26.4952 11.1935 6.3511
LeftFoot  -3.70665 -0.820754 12.558
LeftToes  1.06246e-005 4.65856e-005 -8.18501e-006
429
root  -7.66003 38.3389 13.8401 -167.14 -67.5475 161.876
RightUpLeg  -9.07604 11.6024 -15.339
RightLeg  67.5867 1.83068 4.20388
RightFoot  14.4274 -1.47179 6.84438
RightToes  0.00048216 0.542163 -0.142577
Spine  19.5732 -4.94784 -16.1541
Spine1  4.37875 -11.2973 14.3807
HEad  -4.84498 14.9534 -8.06236
LeftShoulder1  9.10299 -15.6265 -41.2528
LeftArm  29.0628 -21.2683 -55.2022
LeftForeArm  4.06961 -24.9825 -5.11906
LeftHand  -0.25398 0.0180481 5.50724
RightShoulder  3.89876 7.17024 30.5698
RightArm  -12.2823 -32.8309 31.7696
RightForeArm  -16.2908 68.9105 33.9567
RightHand  -0.6977 -0.309061 -15.8863
LeftUpLeg  -20.4763 21.3313 -16.001
LeftLeg  24.8172 10.2603 5.50181
LeftFoot  -5.48229 -0.578175 11.8903
LeftToes  1.06246e-005 4.65856e-005 -8.18501e-006
